<mxfile host="app.diagrams.net" modified="2023-12-05T15:46:35.906Z" agent="Mozilla/5.0 (Windows NT 10.0; Win64; x64) AppleWebKit/537.36 (KHTML, like Gecko) Chrome/119.0.0.0 Safari/537.36" etag="5DoV6fiS8DZ8PcsqIL_1" version="22.1.5" type="github">
  <diagram id="R2lEEEUBdFMjLlhIrx00" name="Page-1">
    <mxGraphModel dx="1434" dy="790" grid="1" gridSize="10" guides="1" tooltips="1" connect="1" arrows="1" fold="1" page="1" pageScale="1" pageWidth="850" pageHeight="1100" math="0" shadow="0" extFonts="Permanent Marker^https://fonts.googleapis.com/css?family=Permanent+Marker">
      <root>
        <mxCell id="0" />
        <mxCell id="1" parent="0" />
        <mxCell id="-jX2ixpVV8lkCBtjYTNB-1" value="&lt;font face=&quot;Verdana&quot;&gt;&lt;span style=&quot;font-size: 16px;&quot;&gt;Клиент&lt;/span&gt;&lt;/font&gt;" style="swimlane;horizontal=0;whiteSpace=wrap;html=1;" vertex="1" parent="1">
          <mxGeometry x="20" y="140" width="1190" height="200" as="geometry" />
        </mxCell>
        <mxCell id="-jX2ixpVV8lkCBtjYTNB-2" value="&lt;font style=&quot;font-size: 14px;&quot; face=&quot;Verdana&quot;&gt;Курьер&lt;br&gt;&lt;/font&gt;" style="swimlane;horizontal=0;whiteSpace=wrap;html=1;" vertex="1" parent="1">
          <mxGeometry x="20" y="470" width="1190" height="200" as="geometry" />
        </mxCell>
        <mxCell id="-jX2ixpVV8lkCBtjYTNB-4" value="" style="points=[[0.145,0.145,0],[0.5,0,0],[0.855,0.145,0],[1,0.5,0],[0.855,0.855,0],[0.5,1,0],[0.145,0.855,0],[0,0.5,0]];shape=mxgraph.bpmn.event;html=1;verticalLabelPosition=bottom;labelBackgroundColor=#ffffff;verticalAlign=top;align=center;perimeter=ellipsePerimeter;outlineConnect=0;aspect=fixed;outline=standard;symbol=message;" vertex="1" parent="-jX2ixpVV8lkCBtjYTNB-2">
          <mxGeometry x="50" y="75" width="50" height="50" as="geometry" />
        </mxCell>
        <mxCell id="-jX2ixpVV8lkCBtjYTNB-5" value="Курьер получает&lt;br&gt;&amp;nbsp;тикет доставки" style="text;html=1;align=center;verticalAlign=middle;resizable=0;points=[];autosize=1;strokeColor=none;fillColor=none;" vertex="1" parent="-jX2ixpVV8lkCBtjYTNB-2">
          <mxGeometry x="15" y="140" width="120" height="40" as="geometry" />
        </mxCell>
        <mxCell id="-jX2ixpVV8lkCBtjYTNB-12" value="" style="edgeStyle=elbowEdgeStyle;fontSize=12;html=1;endArrow=blockThin;endFill=1;rounded=0;" edge="1" parent="-jX2ixpVV8lkCBtjYTNB-2">
          <mxGeometry width="160" relative="1" as="geometry">
            <mxPoint x="100" y="99.5" as="sourcePoint" />
            <mxPoint x="210" y="100" as="targetPoint" />
          </mxGeometry>
        </mxCell>
        <mxCell id="-jX2ixpVV8lkCBtjYTNB-13" value="Курьер берет тикет в работу" style="rounded=0;whiteSpace=wrap;html=1;" vertex="1" parent="-jX2ixpVV8lkCBtjYTNB-2">
          <mxGeometry x="210" y="60" width="170" height="90" as="geometry" />
        </mxCell>
        <mxCell id="-jX2ixpVV8lkCBtjYTNB-3" value="&lt;font style=&quot;font-size: 14px;&quot; face=&quot;Verdana&quot;&gt;Система&lt;br&gt;&lt;/font&gt;" style="swimlane;horizontal=0;whiteSpace=wrap;html=1;" vertex="1" parent="1">
          <mxGeometry x="20" y="790" width="1190" height="200" as="geometry" />
        </mxCell>
        <mxCell id="-jX2ixpVV8lkCBtjYTNB-6" value="" style="points=[[0.145,0.145,0],[0.5,0,0],[0.855,0.145,0],[1,0.5,0],[0.855,0.855,0],[0.5,1,0],[0.145,0.855,0],[0,0.5,0]];shape=mxgraph.bpmn.event;html=1;verticalLabelPosition=bottom;labelBackgroundColor=#ffffff;verticalAlign=top;align=center;perimeter=ellipsePerimeter;outlineConnect=0;aspect=fixed;outline=standard;symbol=general;" vertex="1" parent="-jX2ixpVV8lkCBtjYTNB-3">
          <mxGeometry x="50" y="80" width="50" height="50" as="geometry" />
        </mxCell>
        <mxCell id="-jX2ixpVV8lkCBtjYTNB-7" value="Создание тикета&lt;br&gt;на доставку карты &lt;br&gt;клиенту" style="text;html=1;align=center;verticalAlign=middle;resizable=0;points=[];autosize=1;strokeColor=none;fillColor=none;" vertex="1" parent="-jX2ixpVV8lkCBtjYTNB-3">
          <mxGeometry x="10" y="140" width="130" height="60" as="geometry" />
        </mxCell>
        <mxCell id="-jX2ixpVV8lkCBtjYTNB-15" value="&lt;font style=&quot;font-size: 12px;&quot;&gt;Тикет закрепляется за курьером&lt;/font&gt;" style="points=[[0.25,0,0],[0.5,0,0],[0.75,0,0],[1,0.25,0],[1,0.5,0],[1,0.75,0],[0.75,1,0],[0.5,1,0],[0.25,1,0],[0,0.75,0],[0,0.5,0],[0,0.25,0]];rounded=1;dashed=1;dashPattern=5 2 1 2;labelPosition=center;verticalLabelPosition=middle;align=center;verticalAlign=middle;fontSize=8;html=1;whiteSpace=wrap;" vertex="1" parent="-jX2ixpVV8lkCBtjYTNB-3">
          <mxGeometry x="225" y="80" width="140" height="80" as="geometry" />
        </mxCell>
        <mxCell id="-jX2ixpVV8lkCBtjYTNB-10" value="" style="edgeStyle=elbowEdgeStyle;fontSize=12;html=1;endFill=0;startFill=0;endSize=6;startSize=6;dashed=1;dashPattern=1 4;endArrow=openThin;startArrow=none;rounded=0;exitX=0.5;exitY=0;exitDx=0;exitDy=0;exitPerimeter=0;" edge="1" parent="1" source="-jX2ixpVV8lkCBtjYTNB-6">
          <mxGeometry width="160" relative="1" as="geometry">
            <mxPoint x="90" y="820" as="sourcePoint" />
            <mxPoint x="90" y="590" as="targetPoint" />
            <Array as="points">
              <mxPoint x="90" y="820" />
            </Array>
          </mxGeometry>
        </mxCell>
        <mxCell id="-jX2ixpVV8lkCBtjYTNB-14" value="" style="edgeStyle=elbowEdgeStyle;fontSize=12;html=1;endFill=0;startFill=0;endSize=6;startSize=6;dashed=1;dashPattern=1 4;endArrow=openThin;startArrow=none;rounded=0;exitX=0.553;exitY=1;exitDx=0;exitDy=0;exitPerimeter=0;" edge="1" parent="1" source="-jX2ixpVV8lkCBtjYTNB-13" target="-jX2ixpVV8lkCBtjYTNB-15">
          <mxGeometry width="160" relative="1" as="geometry">
            <mxPoint x="280" y="640" as="sourcePoint" />
            <mxPoint x="320" y="860" as="targetPoint" />
            <Array as="points">
              <mxPoint x="320" y="640" />
              <mxPoint x="330" y="620" />
            </Array>
          </mxGeometry>
        </mxCell>
      </root>
    </mxGraphModel>
  </diagram>
</mxfile>
